HIERARCHY
ROOT SpineBase
{
  OFFSET 0.000000 0.000000 0.000000
  CHANNELS 6 Xposition Yposition Zposition Zrotation Xrotation Yrotation
  JOINT SpineMid
  {
    OFFSET 0.000000 32.413389 0.000000
    CHANNELS 3 Zrotation Xrotation Yrotation
    JOINT SpineShoulder
    {
      OFFSET 0.224678 24.014874 -0.585276
      CHANNELS 3 Zrotation Xrotation Yrotation
      JOINT Neck
      {
        OFFSET 0.172469 7.923294 -0.472825
        CHANNELS 3 Zrotation Xrotation Yrotation
        JOINT Head
        {
          OFFSET 7.178906 10.472267 4.940364
          CHANNELS 3 Zrotation Xrotation Yrotation
          End Site
          {
            OFFSET 0 0 0
          }
        }
      }
      JOINT ShoulderLeft
      {
        OFFSET -5.824658 -2.783804 -11.673762
        CHANNELS 3 Zrotation Xrotation Yrotation
        JOINT ElbowLeft
        {
          OFFSET -4.379216 -22.333758 -9.460031
          CHANNELS 3 Zrotation Xrotation Yrotation
          JOINT WristLeft
          {
            OFFSET -0.820093 -26.527760 -3.692670
            CHANNELS 3 Zrotation Xrotation Yrotation
            JOINT HandLeft
            {
              OFFSET 0.148775 -7.839846 1.538564
              CHANNELS 3 Zrotation Xrotation Yrotation
              JOINT HandTipLeft
              {
                OFFSET -1.003393 -6.673255 0.692496
                CHANNELS 3 Zrotation Xrotation Yrotation
                End Site
                {
                  OFFSET 0 0 0
                }
              }
              JOINT ThumbLeft
              {
                OFFSET 5.173552 1.864375 0.999832
                CHANNELS 3 Zrotation Xrotation Yrotation
                End Site
                {
                  OFFSET 0 0 0
                }
              }
            }
          }
        }
      }
      JOINT ShoulderRight
      {
        OFFSET 3.771830 -6.612597 18.657704
        CHANNELS 3 Zrotation Xrotation Yrotation
        JOINT ElbowRight
        {
          OFFSET 1.600245 -28.285296 2.194873
          CHANNELS 3 Zrotation Xrotation Yrotation
          JOINT WristRight
          {
            OFFSET 5.360473 -20.885534 -16.918110
            CHANNELS 3 Zrotation Xrotation Yrotation
            JOINT HandRight
            {
              OFFSET -2.608847 -2.973223 -3.292336
              CHANNELS 3 Zrotation Xrotation Yrotation
              JOINT HandTipRight
              {
                OFFSET -1.095217 -5.100347 -2.611476
                CHANNELS 3 Zrotation Xrotation Yrotation
                End Site
                {
                  OFFSET 0 0 0
                }
              }
              JOINT ThumbRight
              {
                OFFSET -0.886595 -2.529030 0.658229
                CHANNELS 3 Zrotation Xrotation Yrotation
                End Site
                {
                  OFFSET 0 0 0
                }
              }
            }
          }
        }
      }
    }
  }
  JOINT HipLeft
  {
    OFFSET -1.017300 2.498346 -8.480227
    CHANNELS 3 Zrotation Xrotation Yrotation
    JOINT KneeLeft
    {
      OFFSET -9.584602 -34.592453 -7.449479
      CHANNELS 3 Zrotation Xrotation Yrotation
      JOINT AnkleLeft
      {
        OFFSET -9.534481 -30.986191 1.580698
        CHANNELS 3 Zrotation Xrotation Yrotation
        JOINT FootLeft
        {
          OFFSET 10.238782 -4.317838 -6.135978
          CHANNELS 3 Zrotation Xrotation Yrotation
          End Site
          {
            OFFSET 0 0 0
          }
        }
      }
    }
  }
  JOINT HipRight
  {
    OFFSET 2.990387 -0.975652 1.767648
    CHANNELS 3 Zrotation Xrotation Yrotation
    JOINT KneeRight
    {
      OFFSET -5.030794 -35.850872 1.328608
      CHANNELS 3 Zrotation Xrotation Yrotation
      JOINT AnkleRight
      {
        OFFSET -9.331226 -27.589781 -1.202279
        CHANNELS 3 Zrotation Xrotation Yrotation
        JOINT FootRight
        {
          OFFSET 10.112425 -4.353287 -6.194733
          CHANNELS 3 Zrotation Xrotation Yrotation
          End Site
          {
            OFFSET 0 0 0
          }
        }
      }
    }
  }
}
MOTION
Frames: 5
Frame Time: 0.033333
-82.386151 70.892830 303.352167 -0.543549 0.960529 -66.257691 1.098066 0.110843 66.261186 -0.000000 0.000000 0.000000 1.960388 -1.039680 -0.197554 0.000000 0.000000 0.000000 -1.059932 -1.137926 0.663160 10.264033 -0.157673 -2.015085 1.629236 5.992020 2.928463 4.439777 -0.116394 -1.179765 0.000000 0.000000 0.000000 0.000000 0.000000 0.000000 -0.000000 0.000000 0.000000 1.485210 11.773365 1.542110 -11.026872 -17.244169 10.410572 7.270886 24.525337 -14.526720 0.000000 0.000000 0.000000 0.000000 0.000000 0.000000 1.347222 -1.927575 66.934439 1.778005 1.027736 -0.685251 -0.312580 0.393888 1.381417 0.000000 0.000000 0.000000 0.687700 -1.075956 66.225732 -0.509405 -1.056473 0.482628 1.468834 1.548372 0.892756 0.000000 0.000000 0.000000
-82.356745 70.882104 303.427587 -0.586647 0.885836 -66.375932 1.046672 0.182522 66.378799 -0.000000 0.000000 0.000000 2.205066 -0.982265 -0.354209 0.000000 0.000000 0.000000 -1.052377 -1.111686 0.655056 10.168195 -0.249753 -1.981866 2.624589 6.404742 3.001791 3.854360 -0.090462 -1.404458 0.000000 0.000000 0.000000 0.000000 0.000000 0.000000 -0.000000 0.000000 0.000000 1.215314 11.217039 1.648601 -13.968900 -14.183620 10.866303 18.972007 23.066750 -21.459671 0.000000 0.000000 0.000000 0.000000 0.000000 0.000000 1.144391 -1.764334 66.995249 1.753958 0.850676 -0.628122 -0.323643 0.366815 1.333587 0.000000 0.000000 0.000000 0.631550 -0.945714 66.341682 -0.621815 -1.084728 0.485721 1.517664 1.517754 0.843301 0.000000 0.000000 0.000000
-82.308930 70.820379 303.423527 -0.632603 0.871790 -66.321346 0.312497 -0.194529 66.302828 0.685448 -0.507222 0.024484 2.391244 -0.952625 -0.463764 0.000000 0.000000 0.000000 -1.052499 -1.104410 0.653725 10.083239 -0.279798 -1.964168 3.642634 6.402035 3.110567 3.353491 -0.388284 -1.467563 0.000000 0.000000 0.000000 0.000000 0.000000 0.000000 -0.000000 0.000000 0.000000 0.944436 10.379024 1.692155 -18.751456 -9.327029 11.975505 32.210989 24.678168 -28.062352 0.000000 0.000000 0.000000 0.000000 0.000000 0.000000 1.090309 -1.666477 66.914146 1.729170 0.778062 -0.601359 -0.342217 0.391171 1.418154 0.000000 0.000000 0.000000 0.688496 -0.919649 66.295461 -0.684288 -0.988023 0.468118 1.559512 1.502473 0.939339 0.000000 0.000000 0.000000
-82.277312 70.777792 303.454689 -0.699597 0.878260 -66.304177 0.283206 -0.211157 66.283363 0.779365 -0.533744 0.027617 2.457556 -0.961955 -0.488578 0.000000 0.000000 0.000000 -1.058775 -1.040979 0.644292 10.000330 -0.354812 -1.929325 3.957796 5.695115 3.187558 3.753864 0.720086 -1.666844 0.000000 0.000000 0.000000 0.000000 0.000000 0.000000 -0.000000 0.000000 0.000000 0.837546 10.491582 1.807016 -18.756569 -9.712823 12.122611 31.470468 23.550721 -27.630437 0.000000 0.000000 0.000000 0.000000 0.000000 0.000000 1.091096 -1.516986 66.863228 1.657348 0.714290 -0.566684 -0.359289 0.398527 1.460411 0.000000 0.000000 0.000000 0.746505 -0.842325 66.281995 -0.797521 -0.874537 0.437041 1.626282 1.412447 1.011999 0.000000 0.000000 0.000000
-82.236526 70.782379 303.509759 -0.760620 0.895685 -66.472168 0.250743 -0.213643 66.449435 0.014802 -0.239957 -0.033027 3.278746 -1.210045 -0.467275 0.000000 0.000000 0.000000 -0.220352 -1.273701 0.679513 9.922135 -0.460712 -1.880133 3.866064 4.761087 3.230887 3.596709 1.161697 -1.665804 0.000000 0.000000 0.000000 0.000000 0.000000 0.000000 0.842044 -0.339693 0.060140 0.870295 11.114948 1.917041 -15.279832 -11.382303 9.902158 17.303886 15.201913 -18.102643 0.000000 0.000000 0.000000 0.000000 0.000000 0.000000 1.155273 -1.376218 67.007537 1.567935 0.698253 -0.542039 -0.368325 0.379030 1.427522 0.000000 0.000000 0.000000 0.733091 -0.727628 66.440819 -0.903319 -0.854702 0.416182 1.684204 1.295587 1.010722 0.000000 0.000000 0.000000
